<?xml version="1.0" encoding="utf-8"?>
<!-- Generator: Adobe Illustrator 19.0.0, SVG Export Plug-In . SVG Version: 6.00 Build 0)  -->
<svg version="1.1" id="Layer_1" xmlns="http://www.w3.org/2000/svg" xmlns:xlink="http://www.w3.org/1999/xlink" x="0px" y="0px"
	 viewBox="0 0 500 500" style="enable-background:new 0 0 500 500;" xml:space="preserve">
<style type="text/css">
	.first{fill:#DA2430;}
	.second{fill:#E82429;}
	.third{fill:#C22035;}
	.fourth{fill:#AC223B;}
	.fifth{fill:#B92135;}
</style>
<g id="XMLID_1_">
	<path id="XMLID_3_" class="first" d="M173.5,232.9l-58.6,21.3c0.8,9.4,2.4,18.7,4.6,27.8l55.7-20.3
		C173.4,252.3,172.8,242.6,173.5,232.9"/>
	<path id="XMLID_4_" class="first" d="M432.5,168.1c-4.1-8.4-8.8-16.6-14.3-24.3l-58.6,21.3c6.8,7,12.5,14.8,17.2,23.2L432.5,168.1
		L432.5,168.1z"/>
	<path id="XMLID_5_" class="first" d="M328.5,167.8c-7.4-6.4-15.7-11.9-25-16.2h0c-54.4-25.4-119.3-1.8-144.7,52.7
		c-1.4,3.1-2.7,6.2-3.8,9.3c-3.2,9.2-5,18.6-5.7,28l-0.2,0.1l0,0.2l-35.3,12.8L91.1,263l0-0.1l-0.6,0.2
		c-2.2-27.9,2.5-56.7,15.1-83.8c1.7-3.5,3.4-7,5.3-10.4c41.7-77.6,136.5-110.1,216.4-72.2c16.5,7.8,31.2,18.1,43.8,30.2
		c8.5,7.8,16,16.5,22.6,25.7l-58.6,21.3c-0.3-0.3-0.6-0.6-0.9-0.9l-0.2,0.1C332.3,171.3,330.5,169.5,328.5,167.8z"/>
	<path id="XMLID_6_" class="second" d="M93.8,357.7L93.8,357.7c-12.3-17.1-21.2-36.4-26.3-56.7l55.7-20.3l0,0l0,0.2l0.4-0.1l0,0
		c2.9,15.1,8.8,29.6,17.5,42.3c3.3,4.7,7,9.2,11.1,13.4l-0.2,0.1c0.1,0.1,0.3,0.3,0.4,0.4l-58.1,21.5
		C94.1,358.2,93.9,357.9,93.8,357.7z"/>
	<path id="XMLID_7_" class="first" d="M314.9,342.7c-30.2,18.7-68.9,22.3-103.4,6.2c-12.2-5.7-22.8-13.4-31.7-22.5l-58.5,21.3
		c0.1,0.2,0.3,0.4,0.4,0.6l0,0c16.1,23,38,42.2,64.9,54.9c58,27.5,123.9,17.9,171.6-19.1c21.4-16,39.2-37.3,51.2-63.1
		c12.6-27.1,17.3-55.9,15.1-83.7l-1.6,0.6c0-0.3,0-0.6-0.1-0.9l-58.1,21.5l0,0c-0.9,12.8-4.1,25.6-9.8,37.9
		C345.9,316.1,331.8,331.8,314.9,342.7z"/>
	<path id="XMLID_8_" class="second" d="M379.6,187.4l0.9-0.3v0c9.2,18.8,14.8,39.3,16.4,60.3l-58.5,21.3c0-0.1,0-0.3,0-0.4l-1.1,0.4
		c1.6-21.6-3.3-43.2-13.5-61.8l55.3-20.4l0,0C379.3,186.7,379.4,187,379.6,187.4z"/>
	<path id="XMLID_9_" class="third" d="M173.6,232.6l-58.2,21.5c0.7,9.5,2.4,18.8,4.6,28l55.3-20.4
		C173.5,252.1,172.8,242.4,173.6,232.6"/>
	<path id="XMLID_10_" class="third" d="M430.8,167.2c-4.1-8.5-8.8-16.7-14.2-24.5l-58.2,21.5c6.8,7,12.4,14.9,17.1,23.4L430.8,167.2
		L430.8,167.2z"/>
	<polygon id="XMLID_11_" class="fourth" points="115.4,254.1 173.4,232.8 173.2,244.5 117.2,265.6 115.3,254.1 	"/>
	<polygon id="XMLID_12_" class="fourth" points="358.4,164.1 417.3,143.8 423.5,153.1 366.2,173.3 358.4,164.1 	"/>
	<polygon id="XMLID_13_" class="fifth" points="121.7,348.1 179.9,326.9 197.5,343.5 136.5,366.4 121.7,348.1 	"/>
	<polygon id="XMLID_14_" class="fifth" points="423.8,237.2 364.8,258.5 360.4,282.1 423.4,259.7 423.8,237.2 	"/>
</g>
</svg>
