<svg xmlns="http://www.w3.org/2000/svg" xmlns:xlink="http://www.w3.org/1999/xlink" viewBox="0 0 691.2 363.6"><defs><clipPath id="a" transform="translate(-10 -10)"><path d="M10,191.8c0,100.4,154.7,181.8,345.6,181.8h0c190.9,0,345.6-81.4,345.6-181.8h0C701.2,91.4,546.5,10,355.6,10h0C164.7,10,10,91.4,10,191.8" style="fill:none"/></clipPath><radialGradient id="b" cx="331.27" cy="216.37" r="1" gradientTransform="matrix(453.82, 0, 0, -453.82, -150119.53, 98267.55)" gradientUnits="userSpaceOnUse"><stop offset="0" stop-color="#aeb2d5"/><stop offset="0.3" stop-color="#aeb2d5"/><stop offset="0.75" stop-color="#484c89"/><stop offset="1" stop-color="#484c89"/></radialGradient><clipPath id="c" transform="translate(-10 -10)"><rect x="-4.4" y="-10.7" width="720" height="405" style="fill:none"/></clipPath></defs><g style="clip-path:url(#a)"><path d="M10,191.8c0,100.4,154.7,181.8,345.6,181.8h0c190.9,0,345.6-81.4,345.6-181.8h0C701.2,91.4,546.5,10,355.6,10h0C164.7,10,10,91.4,10,191.8" transform="translate(-10 -10)" style="fill:url(#b)"/></g><g style="clip-path:url(#c)"><path d="M355.6,360.1c183.4,0,332.1-75.4,332.1-168.3S539,23.5,355.6,23.5,23.5,98.8,23.5,191.8,172.2,360.1,355.6,360.1" transform="translate(-10 -10)" style="fill:#777bb3"/></g><g style="clip-path:url(#c)"><path d="M197.8,212.7c15,0,26.3-2.8,33.4-8.3s11.9-14.8,14.5-27.9,1.5-20.9-2.7-25.5-13.5-7.1-27.4-7.1H191.5l-13.3,68.8Zm-78.9,84.7A3.8,3.8,0,0,1,116,296a3.5,3.5,0,0,1-.7-3.1l35.4-182.2a3.7,3.7,0,0,1,3.7-3h76.3c24,0,41.8,6.5,53,19.3s14.8,31,10.4,53.7a86.1,86.1,0,0,1-9.2,25.5A84.4,84.4,0,0,1,268,227.3,73.4,73.4,0,0,1,240.2,244c-10,3.3-22.8,4.9-38.2,4.9H171.1l-8.8,45.4a3.8,3.8,0,0,1-3.7,3.1Z" transform="translate(-10 -10)"/><path d="M194.6,147.7h21c16.8,0,22.6,3.6,24.6,5.8,3.3,3.7,3.9,11.4,1.8,22.2s-6.8,20.9-13.1,25.7-16.9,7.5-31.1,7.5H182.7Zm36.1-43.8H154.3A7.6,7.6,0,0,0,147,110L111.6,292.2a7.5,7.5,0,0,0,7.3,8.9h39.7A7.5,7.5,0,0,0,166,295l8.2-42.3H202c15.8,0,29-1.8,39.4-5.1a78.6,78.6,0,0,0,29.2-17.5,87,87,0,0,0,27.2-48.7c4.6-23.9.8-43-11.2-56.8s-30.8-20.7-55.9-20.7M173.6,216.4h24.2q24,0,35.7-9c7.9-6.1,13.1-16.1,15.9-30.2s1.4-23.1-3.6-28.7-15.1-8.3-30.2-8.3H188.4l-14.8,76.2m57.1-105c22.9,0,39.7,6,50.2,18.1s13.7,28.9,9.5,50.5a81.6,81.6,0,0,1-8.8,24.4,82.8,82.8,0,0,1-16.1,20.2,70,70,0,0,1-26.4,15.8c-9.7,3.2-22.1,4.8-37.1,4.8H168l-9.4,48.4H118.9l35.4-182.2h76.4" transform="translate(-10 -10)" style="fill:#fff"/><path d="M385.1,248.9a3.9,3.9,0,0,1-2.9-1.3,3.9,3.9,0,0,1-.8-3.1l15.7-80.7c1.5-7.6,1.1-13.1-1.1-15.5s-5.3-3.8-17-3.8H350.6L330.9,245.9a3.7,3.7,0,0,1-3.6,3H287.9a3.9,3.9,0,0,1-2.9-1.3,4,4,0,0,1-.8-3.1L319.6,62.3a3.8,3.8,0,0,1,3.7-3.1h39.4a3.7,3.7,0,0,1,2.9,1.4,3.9,3.9,0,0,1,.8,3.1l-8.6,44h30.5c23.3,0,39.1,4.1,48.3,12.5s12.2,22.4,8.6,40.9l-16.4,84.8a3.8,3.8,0,0,1-3.7,3Z" transform="translate(-10 -10)"/><path d="M362.7,55.5H323.3a7.5,7.5,0,0,0-7.4,6L280.5,243.7a7.7,7.7,0,0,0,1.6,6.2,7.4,7.4,0,0,0,5.8,2.8h39.4a7.5,7.5,0,0,0,7.3-6.1l19.1-98.3H379c11.7,0,14.2,2.5,14.3,2.6s1.6,4.3.1,12.2l-15.7,80.6a7.7,7.7,0,0,0,1.6,6.2,7.2,7.2,0,0,0,5.8,2.8h40a7.4,7.4,0,0,0,7.3-6.1l16.5-84.8c3.9-19.9.6-34.8-9.8-44.4s-26.5-13.5-50.8-13.5H362.4L370,64.4a7.3,7.3,0,0,0-1.5-6.2,7.8,7.8,0,0,0-5.8-2.7m0,7.5-9.4,48.4h35c22.1,0,37.3,3.9,45.7,11.6s10.9,20.1,7.6,37.4l-16.5,84.8h-40l15.6-80.6c1.8-9.2,1.2-15.5-1.9-18.8s-9.7-5-19.8-5H347.5L327.3,245.2H287.9L323.3,63h39.4" transform="translate(-10 -10)" style="fill:#fff"/><path d="M507.5,212.7c15.1,0,26.4-2.8,33.5-8.3s11.9-14.8,14.5-27.9,1.4-20.9-2.7-25.5-13.5-7.1-27.4-7.1H501.3l-13.4,68.8Zm-78.8,84.7a3.7,3.7,0,0,1-2.9-1.4,3.9,3.9,0,0,1-.8-3.1l35.4-182.2a3.7,3.7,0,0,1,3.7-3h76.3c24,0,41.9,6.5,53.1,19.3s14.8,31,10.4,53.7a86.1,86.1,0,0,1-9.2,25.5,84.4,84.4,0,0,1-16.9,21.1A73.4,73.4,0,0,1,550,244c-10,3.3-22.9,4.9-38.2,4.9H480.9l-8.8,45.4a3.8,3.8,0,0,1-3.7,3.1Z" transform="translate(-10 -10)"/><path d="M504.4,147.7h21c16.8,0,22.6,3.6,24.6,5.8,3.3,3.7,3.9,11.4,1.8,22.2s-6.8,20.9-13.1,25.7-16.9,7.5-31.2,7.5h-15Zm36-43.8H464.1a7.4,7.4,0,0,0-7.3,6.1L421.3,292.2a7.8,7.8,0,0,0,1.6,6.2,7.6,7.6,0,0,0,5.8,2.7h39.7a7.5,7.5,0,0,0,7.4-6.1l8.2-42.3h27.8c15.7,0,29-1.8,39.4-5.1a78.2,78.2,0,0,0,29.1-17.5,87,87,0,0,0,27.2-48.7c4.7-23.9.9-43-11.2-56.8s-30.7-20.7-55.9-20.7m-57,112.5h24.1c16,0,28-3,35.8-9s13.1-16.1,15.8-30.2,1.5-23.1-3.5-28.7-15.1-8.3-30.2-8.3H498.2l-14.8,76.2m57-105c23,0,39.7,6,50.3,18.1s13.7,28.9,9.5,50.5a84.4,84.4,0,0,1-8.8,24.4,80.9,80.9,0,0,1-16.2,20.2,69.2,69.2,0,0,1-26.4,15.8c-9.7,3.2-22,4.8-37,4.8h-34l-9.4,48.4H428.7l35.4-182.2h76.3" transform="translate(-10 -10)" style="fill:#fff"/></g></svg>