<?xml version="1.0" encoding="utf-8"?>
<svg version="1.1" xmlns="http://www.w3.org/2000/svg" xmlns:xlink="http://www.w3.org/1999/xlink" x="0px" y="0px"
	 viewBox="0 0 2433 2500" style="enable-background:new 0 0 2433 2500;" xml:space="preserve">
<style type="text/css">
	.unity1{fill:#222C37;}
	.unity2{fill:#FFFFFF;}
</style>
<g id="Layer_1">
	<path class="unity1" d="M1585.9,1247.3l436.3-753.4l210.8,753.4l-210.8,753.2L1585.9,1247.3L1585.9,1247.3z M1373.3,1369.6
		l436.4,753.3l-760-194.7l-549-558.6H1373.3z M1809.6,371.4l-436.3,753.4H500.6l549-558.6L1809.6,371.4z M2432.4,990.9L2166.3,0.6
		L1172.7,266l-147.1,258.6l-298.4-2.1L0,1247.3l727.2,724.8h0l298.3-2.2l147.3,258.6l993.4,265.3l266.2-990.1l-151.2-256.4
		L2432.4,990.9L2432.4,990.9z"/>
</g>
<g id="Layer_2">
	<polygon class="unity2" points="1809.6,371.4 1049.7,566.2 500.6,1124.8 1373.3,1124.8 	"/>
	<polygon class="unity2" points="2022.3,493.8 1585.9,1247.3 2022.3,2000.5 2233.1,1247.3 	"/>
	<polygon class="unity2" points="1809.7,2122.9 1373.3,1369.6 500.6,1369.6 1049.7,1928.2 	"/>
</g>
</svg>
