<svg xmlns="http://www.w3.org/2000/svg" viewBox="0 0 1920 254"><path d="M1150.44,80.73c-190,18.58-246.36,31.16-246.36,31.16s144.64-7.33,199.06-13.54,217.55-26.43,188.56-27.51S1150.44,80.73,1150.44,80.73Z"/><path d="M228.08,218.09C52.38,238.09,0,248.5,0,248.5s133.44-10.92,183.78-17.21,201.37-26.17,174.73-25.59S228.08,218.09,228.08,218.09Z"/><path d="M877.06,135.73c-63.6-1.14-172.89,20.19-172.89,20.19s-54,12.75.27,7S979.19,135,925.85,135.28,877.06,135.73,877.06,135.73Z"/><path d="M1677.23,35.73c-44.7-1.12-121.45,17-121.45,17s-37.91,10.85.2,6,193-23.42,155.53-23.25"/><path d="M1898.22,21.72c141,0-444,57.78-588,72.9-87.89,9.23-10.63-10,17.83-18.62l-362,51c32.55-2.27,199.48-22.52,213.37-21.07,39.85,4.16-209.08,40.43-291.59,51.3s-293.26,19-293.26,19,2.22-.62,7.06-1.77L387.38,202.76c16.37-1.44,32.1-2.38,46.68-2.66,0,0-8.33.11,88.79-4,87.07-3.69-219.57,39.08-353.45,57.9H1920.05V48.19c-30.65,6.46-246.56,32.87-326.26,42.22-93.3,10.93-340,31.33-340,31.33s97.47-17.15,422.86-52.41c0,0,192.23-20.84,241.3-22.51l2.07-.06V0L1754.59,21.89M756.23,191.44s-182.66,34.45-294.7,41.87c0,0,8-.5-85.38,6.92S660.09,197.6,752.81,185,756.23,191.44,756.23,191.44Zm370-42.23c-27,3.15-.14-3.86-.14-3.86s54.3-11.71,85.92-11l24.25-.21C1262.8,134,1153.23,146.05,1126.27,149.21Z"/></svg>