<svg xmlns="http://www.w3.org/2000/svg" xmlns:xlink="http://www.w3.org/1999/xlink" style="margin:auto;display:block;z-index:1;position:relative" width="1280" height="400" preserveAspectRatio="xMidYMid" viewBox="0 0 1280 400">
<g transform="translate(640,200) scale(1,1) translate(-640,-200)"><path id="path0" d="M 430.9119951016613 128.08757035288488
c 0 20.23015641796784 -4.949931889502769 5.810789609416295 -10.760721498919064 5.810789609416295
S 409.3905521038232 148.31772677085272 409.3905521038232 128.08757035288488
s 4.949931889502769 -5.810789609416295 10.760721498919064 -5.810789609416295
S 430.9119951016613 107.85741393491705 430.9119951016613 128.08757035288488
z" fill="none" stroke="none"></path>
<circle cx="0" cy="0" r="4.399043227979838" fill="#f8f0e0">
  <animateMotion begin="-5.209643273062721s" dur="10s" repeatCount="indefinite">
    <mpath xlink:href="#path0"></mpath>
  </animateMotion>
</circle><path id="path1" d="M 725.8200882873995 316.12425416863505
c 0 21.676871467282844 -5.303915359016014 6.226335421453583 -11.530250780469597 6.226335421453583
S 702.7595867264603 337.8011256359179 702.7595867264603 316.12425416863505
s 5.303915359016014 -6.226335421453583 11.530250780469597 -6.226335421453583
S 725.8200882873995 294.4473827013522 725.8200882873995 316.12425416863505
z" fill="none" stroke="none"></path>
<circle cx="0" cy="0" r="3.085583469696658" fill="#364966">
  <animateMotion begin="-8.130756121543515s" dur="10s" repeatCount="indefinite">
    <mpath xlink:href="#path1"></mpath>
  </animateMotion>
</circle><path id="path2" d="M 1261.9014497754927 330.92847001146686
c 0 32.56248047108679 -7.967415434414853 9.353052901269612 -17.320468335684463 9.353052901269612
S 1227.260513104124 363.49095048255367 1227.260513104124 330.92847001146686
s 7.967415434414853 -9.353052901269612 17.320468335684463 -9.353052901269612
S 1261.9014497754927 298.36598954038004 1261.9014497754927 330.92847001146686
z" fill="none" stroke="none"></path>
<circle cx="0" cy="0" r="2.9001094727372942" fill="#fa4454">
  <animateMotion begin="-3.092122540567257s" dur="10s" repeatCount="indefinite">
    <mpath xlink:href="#path2"></mpath>
  </animateMotion>
</circle><path id="path3" d="M 583.8835671861551 52.09520793739422
c 0 19.34872270122952 -4.734261937534883 5.557611839714863 -10.291873777249744 5.557611839714863
S 563.2998196316556 71.44393063862374 563.2998196316556 52.09520793739422
s 4.734261937534883 -5.557611839714863 10.291873777249744 -5.557611839714863
S 583.8835671861551 32.7464852361647 583.8835671861551 52.09520793739422
z" fill="none" stroke="none"></path>
<circle cx="0" cy="0" r="3.370224231166943" fill="#dc3d4b">
  <animateMotion begin="-1.8375495173800438s" dur="10s" repeatCount="indefinite">
    <mpath xlink:href="#path3"></mpath>
  </animateMotion>
</circle><path id="path4" d="M 532.0861497798516 305.191859314339
c 0 37.16785169670404 -9.094261585363753 10.675872295861799 -19.770133881225554 10.675872295861799
S 492.54588201740046 342.35971101104303 492.54588201740046 305.191859314339
s 9.094261585363753 -10.675872295861799 19.770133881225554 -10.675872295861799
S 532.0861497798516 268.024007617635 532.0861497798516 305.191859314339
z" fill="none" stroke="none"></path>
<circle cx="0" cy="0" r="4.916986115354702" fill="#042e27">
  <animateMotion begin="-4.349881168996143s" dur="10s" repeatCount="indefinite">
    <mpath xlink:href="#path4"></mpath>
  </animateMotion>
</circle><path id="path5" d="M 921.6981436983455 377.0914886873681
c 0 29.500649002292338 -7.21824390481621 8.473590670871204 -15.691834575687412 8.473590670871204
S 890.3144745469707 406.59213768966043 890.3144745469707 377.0914886873681
s 7.21824390481621 -8.473590670871204 15.691834575687412 -8.473590670871204
S 921.6981436983455 347.59083968507576 921.6981436983455 377.0914886873681
z" fill="none" stroke="none"></path>
<circle cx="0" cy="0" r="3.2297219234026358" fill="#f8f0e0">
  <animateMotion begin="-6.788300180589662s" dur="10s" repeatCount="indefinite">
    <mpath xlink:href="#path5"></mpath>
  </animateMotion>
</circle><path id="path6" d="M 165.79746071482685 6.294545742270476
c 0 29.10538454820455 -7.12153026179473 8.360057263845988 -15.48158752564072 8.360057263845988
S 134.83428566354542 35.39993029047503 134.83428566354542 6.294545742270476
s 7.12153026179473 -8.360057263845988 15.48158752564072 -8.360057263845988
S 165.79746071482685 -22.810838805934075 165.79746071482685 6.294545742270476
z" fill="none" stroke="none"></path>
<circle cx="0" cy="0" r="3.199152664198123" fill="#fa4454">
  <animateMotion begin="-4.614816204174604s" dur="10s" repeatCount="indefinite">
    <mpath xlink:href="#path6"></mpath>
  </animateMotion>
</circle><path id="path7" d="M 68.9700927948601 320.7890170757804
c 0 31.2934270534678 -7.656902364146375 8.988537557910965 -16.64543992205734 8.988537557910965
S 35.67921295074541 352.0824441292482 35.67921295074541 320.7890170757804
s 7.656902364146375 -8.988537557910965 16.64543992205734 -8.988537557910965
S 68.9700927948601 289.4955900223126 68.9700927948601 320.7890170757804
z" fill="none" stroke="none"></path>
<circle cx="0" cy="0" r="4.419501525185018" fill="#364966">
  <animateMotion begin="-8.309457386207537s" dur="10s" repeatCount="indefinite">
    <mpath xlink:href="#path7"></mpath>
  </animateMotion>
</circle><path id="path8" d="M 955.9583883687961 90.48592419636164
c 0 29.909631583648473 -7.318314110892711 8.591064391047965 -15.909378501940676 8.591064391047965
S 924.1396313649149 120.39555578001011 924.1396313649149 90.48592419636164
s 7.318314110892711 -8.591064391047965 15.909378501940676 -8.591064391047965
S 955.9583883687961 60.57629261271316 955.9583883687961 90.48592419636164
z" fill="none" stroke="none"></path>
<circle cx="0" cy="0" r="4.319059367253966" fill="#fa4454">
  <animateMotion begin="-4.948548053385107s" dur="10s" repeatCount="indefinite">
    <mpath xlink:href="#path8"></mpath>
  </animateMotion>
</circle><path id="path9" d="M 1166.8529362026059 49.18121988469502
c 0 26.304617016180092 -6.436236078427044 7.555581483370878 -13.991817561797921 7.555581483370878
S 1138.86930107901 75.48583690087511 1138.86930107901 49.18121988469502
s 6.436236078427044 -7.555581483370878 13.991817561797921 -7.555581483370878
S 1166.8529362026059 22.876602868514926 1166.8529362026059 49.18121988469502
z" fill="none" stroke="none"></path>
<circle cx="0" cy="0" r="4.891192745652651" fill="#fa4454">
  <animateMotion begin="-0.24830101075947297s" dur="10s" repeatCount="indefinite">
    <mpath xlink:href="#path9"></mpath>
  </animateMotion>
</circle><path id="path10" d="M 1195.03607970362 367.3733926719507
c 0 26.480443439337037 -6.479257437284593 7.606084817681915 -14.085342254966509 7.606084817681915
S 1166.8653951936872 393.8538361112877 1166.8653951936872 367.3733926719507
s 6.479257437284593 -7.606084817681915 14.085342254966509 -7.606084817681915
S 1195.03607970362 340.89294923261366 1195.03607970362 367.3733926719507
z" fill="none" stroke="none"></path>
<circle cx="0" cy="0" r="2.583657292651254" fill="#364966">
  <animateMotion begin="-4.7418731137076815s" dur="10s" repeatCount="indefinite">
    <mpath xlink:href="#path10"></mpath>
  </animateMotion>
</circle><path id="path11" d="M 1123.116942863495 152.5630893377932
c 0 28.882228342389997 -7.06692821143585 8.295959204729042 -15.362887416164892 8.295959204729042
S 1092.391168031165 181.4453176801832 1092.391168031165 152.5630893377932
s 7.06692821143585 -8.295959204729042 15.362887416164892 -8.295959204729042
S 1123.116942863495 123.68086099540321 1123.116942863495 152.5630893377932
z" fill="none" stroke="none"></path>
<circle cx="0" cy="0" r="4.108303679622242" fill="#042e27">
  <animateMotion begin="-6.754638048808042s" dur="10s" repeatCount="indefinite">
    <mpath xlink:href="#path11"></mpath>
  </animateMotion>
</circle><path id="path12" d="M 36.84835176062379 253.00466181317944
c 0 24.539855392183117 -6.004432702342678 7.048681867967492 -13.05311457031017 7.048681867967492
S 10.742122620003455 277.5445172053626 10.742122620003455 253.00466181317944
s 6.004432702342678 -7.048681867967492 13.05311457031017 -7.048681867967492
S 36.84835176062379 228.46480642099633 36.84835176062379 253.00466181317944
z" fill="none" stroke="none"></path>
<circle cx="0" cy="0" r="3.7784548588202718" fill="#042e27">
  <animateMotion begin="-7.839643276033847s" dur="10s" repeatCount="indefinite">
    <mpath xlink:href="#path12"></mpath>
  </animateMotion>
</circle><path id="path13" d="M 1194.9609188419681 115.74961229197189
c 0 20.391221372543136 -4.989341399664809 5.857052947432603 -10.846394347097412 5.857052947432603
S 1173.2681301477733 136.14083366451501 1173.2681301477733 115.74961229197189
s 4.989341399664809 -5.857052947432603 10.846394347097412 -5.857052947432603
S 1194.9609188419681 95.35839091942876 1194.9609188419681 115.74961229197189
z" fill="none" stroke="none"></path>
<circle cx="0" cy="0" r="3.7265454473432498" fill="#f8f0e0">
  <animateMotion begin="-9.301561463605786s" dur="10s" repeatCount="indefinite">
    <mpath xlink:href="#path13"></mpath>
  </animateMotion>
</circle><path id="path14" d="M 109.45622793753782 334.5712806668062
c 0 32.16911168574156 -7.871165625234637 9.240063994840662 -17.1112296200753 9.240063994840662
S 75.23376869738723 366.74039235254776 75.23376869738723 334.5712806668062
s 7.871165625234637 -9.240063994840662 17.1112296200753 -9.240063994840662
S 109.45622793753782 302.4021689810647 109.45622793753782 334.5712806668062
z" fill="none" stroke="none"></path>
<circle cx="0" cy="0" r="4.915466629050061" fill="#f8f0e0">
  <animateMotion begin="-6.2125245801639934s" dur="10s" repeatCount="indefinite">
    <mpath xlink:href="#path14"></mpath>
  </animateMotion>
</circle><path id="path15" d="M 290.61510388306726 350.5959805077638
c 0 22.328770470548193 -5.463422561942643 6.413583007497886 -11.877005569440529 6.413583007497886
S 266.8610927441862 372.924750978312 266.8610927441862 350.5959805077638
s 5.463422561942643 -6.413583007497886 11.877005569440529 -6.413583007497886
S 290.61510388306726 328.2672100372156 290.61510388306726 350.5959805077638
z" fill="none" stroke="none"></path>
<circle cx="0" cy="0" r="4.285624899728243" fill="#364966">
  <animateMotion begin="-1.508370580312992s" dur="10s" repeatCount="indefinite">
    <mpath xlink:href="#path15"></mpath>
  </animateMotion>
</circle><path id="path16" d="M 29.97026383335764 42.693026960405604
c 0 33.21938725381882 -8.128147945083327 9.541738892054342 -17.669886837137668 9.541738892054342
S -5.369509840917694 75.91241421422443 -5.369509840917694 42.693026960405604
s 8.128147945083327 -9.541738892054342 17.669886837137668 -9.541738892054342
S 29.97026383335764 9.47363970658678 29.97026383335764 42.693026960405604
z" fill="none" stroke="none"></path>
<circle cx="0" cy="0" r="4.100449050008721" fill="#dc3d4b">
  <animateMotion begin="-6.030706777001676s" dur="10s" repeatCount="indefinite">
    <mpath xlink:href="#path16"></mpath>
  </animateMotion>
</circle><path id="path17" d="M 424.44121653083613 252.10520411540406
c 0 21.553568628701232 -5.273745515533279 6.190918648669503 -11.464664164202782 6.190918648669503
S 401.5118882024306 273.6587727441053 401.5118882024306 252.10520411540406
s 5.273745515533279 -6.190918648669503 11.464664164202782 -6.190918648669503
S 424.44121653083613 230.55163548670282 424.44121653083613 252.10520411540406
z" fill="none" stroke="none"></path>
<circle cx="0" cy="0" r="3.8868455543358578" fill="#fa4454">
  <animateMotion begin="-3.765218929342631s" dur="10s" repeatCount="indefinite">
    <mpath xlink:href="#path17"></mpath>
  </animateMotion>
</circle><path id="path18" d="M 195.63210949902577 260.3003991378022
c 0 22.488093831914984 -5.502405937596219 6.459346100656432 -11.961752038252651 6.459346100656432
S 171.70860542252046 282.78849296971714 171.70860542252046 260.3003991378022
s 5.502405937596219 -6.459346100656432 11.961752038252651 -6.459346100656432
S 195.63210949902577 237.81230530588718 195.63210949902577 260.3003991378022
z" fill="none" stroke="none"></path>
<circle cx="0" cy="0" r="3.256692428993815" fill="#f8f0e0">
  <animateMotion begin="-2.3595806914219897s" dur="10s" repeatCount="indefinite">
    <mpath xlink:href="#path18"></mpath>
  </animateMotion>
</circle><path id="path19" d="M 200.32535113015797 263.32618022779485
c 0 23.8048740051266 -5.824596831041614 6.837570192961896 -12.66216702400351 6.837570192961896
S 175.00101708215095 287.13105423292143 175.00101708215095 263.32618022779485
s 5.824596831041614 -6.837570192961896 12.66216702400351 -6.837570192961896
S 200.32535113015797 239.52130622266824 200.32535113015797 263.32618022779485
z" fill="none" stroke="none"></path>
<circle cx="0" cy="0" r="4.263742988293105" fill="#f8f0e0">
  <animateMotion begin="-1.5319248042124323s" dur="10s" repeatCount="indefinite">
    <mpath xlink:href="#path19"></mpath>
  </animateMotion>
</circle><path id="path20" d="M 1234.4512911024858 356.521962018531
c 0 19.706311132200508 -4.8217569791554435 5.6603234103129125 -10.482080389468356 5.6603234103129125
S 1213.487130323549 376.22827315073147 1213.487130323549 356.521962018531
s 4.8217569791554435 -5.6603234103129125 10.482080389468356 -5.6603234103129125
S 1234.4512911024858 336.8156508863305 1234.4512911024858 356.521962018531
z" fill="none" stroke="none"></path>
<circle cx="0" cy="0" r="3.4604098768139187" fill="#042e27">
  <animateMotion begin="-6.197068161432224s" dur="10s" repeatCount="indefinite">
    <mpath xlink:href="#path20"></mpath>
  </animateMotion>
</circle><path id="path21" d="M 56.25094088524649 313.40033925173833
c 0 36.45439697404443 -8.919692876627892 10.470943811693612 -19.390636688321504 10.470943811693612
S 17.46966750860349 349.85473622578274 17.46966750860349 313.40033925173833
s 8.919692876627892 -10.470943811693612 19.390636688321504 -10.470943811693612
S 56.25094088524649 276.9459422776939 56.25094088524649 313.40033925173833
z" fill="none" stroke="none"></path>
<circle cx="0" cy="0" r="3.7581736700860753" fill="#364966">
  <animateMotion begin="-5.14210140792134s" dur="10s" repeatCount="indefinite">
    <mpath xlink:href="#path21"></mpath>
  </animateMotion>
</circle><path id="path22" d="M 331.1939438085773 395.27668593402785
c 0 24.684573438811032 -6.03984243715589 7.090249817530828 -13.13009225468672 7.090249817530828
S 304.93375929920387 419.96125937283887 304.93375929920387 395.27668593402785
s 6.03984243715589 -7.090249817530828 13.13009225468672 -7.090249817530828
S 331.1939438085773 370.59211249521684 331.1939438085773 395.27668593402785
z" fill="none" stroke="none"></path>
<circle cx="0" cy="0" r="2.7237029611761825" fill="#f8f0e0">
  <animateMotion begin="-1.1446003200754884s" dur="10s" repeatCount="indefinite">
    <mpath xlink:href="#path22"></mpath>
  </animateMotion>
</circle><path id="path23" d="M 351.8485904002126 379.5283115132258
c 0 36.55991340907466 -8.945510727752309 10.501251723883147 -19.446762451635454 10.501251723883147
S 312.9550654969417 416.08822492230047 312.9550654969417 379.5283115132258
s 8.945510727752309 -10.501251723883147 19.446762451635454 -10.501251723883147
S 351.8485904002126 342.9683981041511 351.8485904002126 379.5283115132258
z" fill="none" stroke="none"></path>
<circle cx="0" cy="0" r="4.929567078184965" fill="#364966">
  <animateMotion begin="-2.48263780151202s" dur="10s" repeatCount="indefinite">
    <mpath xlink:href="#path23"></mpath>
  </animateMotion>
</circle><path id="path24" d="M 514.2151765131107 92.59675831493657
c 0 30.99962768279522 -7.5850152840881915 8.904148376973096 -16.489163661061287 8.904148376973096
S 481.2368491909881 123.59638599773179 481.2368491909881 92.59675831493657
s 7.5850152840881915 -8.904148376973096 16.489163661061287 -8.904148376973096
S 514.2151765131107 61.597130632141344 514.2151765131107 92.59675831493657
z" fill="none" stroke="none"></path>
<circle cx="0" cy="0" r="3.9796534520377476" fill="#fa4454">
  <animateMotion begin="-5.225196924361724s" dur="10s" repeatCount="indefinite">
    <mpath xlink:href="#path24"></mpath>
  </animateMotion>
</circle><path id="path25" d="M 997.1829086277361 271.0482007170768
c 0 33.57055379837121 -8.214071674069551 9.64260587825556 -17.85667755232511 9.64260587825556
S 961.4695535230859 304.618754515448 961.4695535230859 271.0482007170768
s 8.214071674069551 -9.64260587825556 17.85667755232511 -9.64260587825556
S 997.1829086277361 237.47764691870557 997.1829086277361 271.0482007170768
z" fill="none" stroke="none"></path>
<circle cx="0" cy="0" r="4.7445846782390015" fill="#fa4454">
  <animateMotion begin="-1.1654847445980243s" dur="10s" repeatCount="indefinite">
    <mpath xlink:href="#path25"></mpath>
  </animateMotion>
</circle><path id="path26" d="M 461.20711518615326 266.6115947342365
c 0 24.239009130354322 -5.930821382959036 6.962268579995391 -12.893089962954427 6.962268579995391
S 435.4209352602444 290.8506038645908 435.4209352602444 266.6115947342365
s 5.930821382959036 -6.962268579995391 12.893089962954427 -6.962268579995391
S 461.20711518615326 242.3725856038822 461.20711518615326 266.6115947342365
z" fill="none" stroke="none"></path>
<circle cx="0" cy="0" r="3.571042904394017" fill="#dc3d4b">
  <animateMotion begin="-9.193471787743434s" dur="10s" repeatCount="indefinite">
    <mpath xlink:href="#path26"></mpath>
  </animateMotion>
</circle><path id="path27" d="M 952.9117638216253 83.90735894344661
c 0 21.608159395471855 -5.287102830806942 6.206598975295107 -11.49370180610205 6.206598975295107
S 929.9243602094211 105.51551833891847 929.9243602094211 83.90735894344661
s 5.287102830806942 -6.206598975295107 11.49370180610205 -6.206598975295107
S 952.9117638216253 62.29919954797475 952.9117638216253 83.90735894344661
z" fill="none" stroke="none"></path>
<circle cx="0" cy="0" r="3.0969831588665855" fill="#dc3d4b">
  <animateMotion begin="-9.698031471904336s" dur="10s" repeatCount="indefinite">
    <mpath xlink:href="#path27"></mpath>
  </animateMotion>
</circle><path id="path28" d="M 878.4664889665595 337.5719412337294
c 0 21.06458163836398 -5.15409976257842 6.050464938679015 -11.204564701257436 6.050464938679015
S 856.0573595640445 358.63652287209334 856.0573595640445 337.5719412337294
s 5.15409976257842 -6.050464938679015 11.204564701257436 -6.050464938679015
S 878.4664889665595 316.5073595953654 878.4664889665595 337.5719412337294
z" fill="none" stroke="none"></path>
<circle cx="0" cy="0" r="3.5133115899123766" fill="#fa4454">
  <animateMotion begin="-1.2107114998143964s" dur="10s" repeatCount="indefinite">
    <mpath xlink:href="#path28"></mpath>
  </animateMotion>
</circle><path id="path29" d="M 287.2132210517754 13.487089829932103
c 0 30.10964335973791 -7.367253162489062 8.648514582052378 -16.015767744541442 8.648514582052378
S 255.1816855626925 43.59673318967001 255.1816855626925 13.487089829932103
s 7.367253162489062 -8.648514582052378 16.015767744541442 -8.648514582052378
S 287.2132210517754 -16.622553529805806 287.2132210517754 13.487089829932103
z" fill="none" stroke="none"></path>
<circle cx="0" cy="0" r="3.325148021559905" fill="#364966">
  <animateMotion begin="-3.472599292321892s" dur="10s" repeatCount="indefinite">
    <mpath xlink:href="#path29"></mpath>
  </animateMotion>
</circle></g>
</svg>