<svg xmlns="http://www.w3.org/2000/svg" viewBox="0 0 1920.05 254"><path d="M1150.39,826.73C960.35,845.31,904,857.89,904,857.89s144.64-7.33,199-13.54,217.55-26.43,188.56-27.51S1150.39,826.73,1150.39,826.73Z" transform="translate(0.05 -746)"/><path d="M228,964.09C52.33,984.09,0,994.5,0,994.5s133.43-10.92,183.78-17.21,201.36-26.17,174.73-25.59S228,964.09,228,964.09Z" transform="translate(0.05 -746)"/><path d="M877,881.73c-63.61-1.14-172.89,20.19-172.89,20.19s-54,12.75.26,7S979.13,881,925.8,881.28,877,881.73,877,881.73Z" transform="translate(0.05 -746)"/><path d="M1677.17,781.73c-44.7-1.12-121.44,17-121.44,17s-37.92,10.85.2,6,193-23.42,155.52-23.25" transform="translate(0.05 -746)"/><path d="M1917.92,792.82l2.08-.06V746l-165.46,21.89c5,0,2.68,6,7.46,6.11,0,0-4.83-6.28,136.17-6.28s-444,57.78-588,72.9c-87.9,9.23-10.63-10,17.83-18.62L966,873c32.55-2.27,199.48-22.52,213.36-21.07,39.85,4.16-209.07,40.43-291.59,51.3s-293.26,19-293.26,19,2.23-.62,7.07-1.77L387.33,948.76c16.37-1.44,32.1-2.38,46.68-2.66,0,0-8.34.11,88.78-4,87.08-3.69-219.56,39.08-353.44,57.9H1920V794.19c-30.65,6.46-246.56,32.87-326.26,42.22-93.3,10.93-340,31.33-340,31.33s97.48-17.15,422.87-52.41C1676.63,815.33,1868.85,794.49,1917.92,792.82ZM756.18,937.44s-182.66,34.45-294.7,41.87c0,0,8-.5-85.39,6.92S660,943.6,752.76,931,756.18,937.44,756.18,937.44Zm370-42.23c-27,3.15-.13-3.86-.13-3.86s54.3-11.71,85.91-11l24.25-.21C1262.75,880,1153.18,892.05,1126.21,895.21Z" transform="translate(0.05 -746)"/></svg>